<svg width="60" height="60" xmlns="http://www.w3.org/2000/svg">
 <title/>
 <desc/>

 <g>
  <title>background</title>
  <rect fill="none" id="canvas_background" height="402" width="582" y="-1" x="-1"/>
 </g>
 <g>
  <title>Layer 1</title>
  <path fill="#00acee" id="svg_1" d="m41.05214,18.43669c-1.20896,-1.37449 -2.9316,-2.25023 -4.83808,-2.28196c-3.66046,-0.06093 -6.62841,3.03219 -6.62841,6.90839c0,0.55012 0.05864,1.08657 0.17172,1.60155c-5.50879,-0.35732 -10.3929,-3.2259 -13.66195,-7.54995c-0.57056,1.03614 -0.89751,2.24716 -0.89751,3.54443c0,2.45584 1.17018,4.63538 2.94872,5.92227c-1.08651,-0.04797 -2.10856,-0.37688 -3.00219,-0.91647c-0.00065,0.02949 -0.00065,0.05899 -0.00065,0.08901c0,3.42959 2.2848,6.30675 5.31704,6.97698c-0.55618,0.1576 -1.14175,0.24008 -1.74623,0.23607c-0.42711,-0.00283 -0.84242,-0.0502 -1.24708,-0.13524c0.8434,2.81261 3.29119,4.865 6.19177,4.93286c-2.26848,1.88307 -5.12642,3.00456 -8.232,2.99816c-0.53501,-0.00111 -1.0626,-0.03568 -1.58114,-0.10219c2.93338,2.01271 6.41744,3.18457 10.16061,3.18555c12.19179,0.0032 18.85897,-10.60664 18.85897,-19.80938c0,-0.30193 -0.00662,-0.60225 -0.01922,-0.90112c1.29505,-0.96498 2.41871,-2.17486 3.30734,-3.55643c-1.1886,0.5358 -2.46621,0.89165 -3.80682,1.04092c1.36839,-0.84217 2.41952,-2.19004 2.91432,-3.80638c-1.28084,0.77673 -2.69931,1.33375 -4.20921,1.62293z"/>
 </g>
</svg>